<?xml version="1.0" encoding="utf-8"?>
<!-- Generator: Adobe Illustrator 27.5.0, SVG Export Plug-In . SVG Version: 6.00 Build 0)  -->
<svg version="1.1" id="Layer_1" xmlns="http://www.w3.org/2000/svg" xmlns:xlink="http://www.w3.org/1999/xlink" x="0px" y="0px"
	 viewBox="0 0 1920 408" style="enable-background:new 0 0 1920 408;" xml:space="preserve">
<style type="text/css">
	.st0{fill:#77777B;}
</style>
<g>
	<path d="M139,140.5l-81.8-14.7c6.8-26,19.9-46,39.2-59.9c19.3-13.9,46.7-20.8,82.1-20.8c40.6,0,70,7.6,88.1,22.7
		C284.7,83,293.8,102,293.8,125c0,13.5-3.7,25.6-11,36.5c-7.4,10.9-18.5,20.5-33.3,28.7c12,3,21.2,6.4,27.6,10.4
		c10.3,6.4,18.4,14.8,24.1,25.2c5.7,10.4,8.6,22.8,8.6,37.3c0,18.1-4.7,35.5-14.2,52.1c-9.5,16.6-23.1,29.4-41,38.4
		c-17.8,9-41.3,13.5-70.3,13.5c-28.3,0-50.6-3.3-67-10c-16.4-6.7-29.8-16.4-40.3-29.2c-10.5-12.8-18.7-28.9-24.3-48.3l86.4-11.5
		c3.4,17.4,8.7,29.5,15.8,36.2c7.1,6.7,16.2,10.1,27.3,10.1c11.6,0,21.3-4.2,29-12.7c7.7-8.5,11.6-19.8,11.6-34
		c0-14.4-3.7-25.6-11.1-33.6c-7.4-7.9-17.5-11.9-30.3-11.9c-6.8,0-16.1,1.7-28,5.1l4.5-61.8c4.8,0.7,8.6,1.1,11.3,1.1
		c11.3,0,20.8-3.6,28.3-10.8c7.6-7.2,11.4-15.8,11.4-25.7c0-9.5-2.8-17.1-8.5-22.7c-5.7-5.7-13.5-8.5-23.4-8.5
		c-10.2,0-18.5,3.1-24.8,9.2C145.5,114.3,141.2,125.1,139,140.5z"/>
	<path d="M320.8,50.4h142.9c28.2,0,50.9,3.8,68.3,11.5c17.3,7.6,31.7,18.6,43,32.9c11.3,14.3,19.5,30.9,24.6,49.9
		c5.1,19,7.6,39.1,7.6,60.3c0,33.3-3.8,59.1-11.4,77.4c-7.6,18.3-18.1,33.7-31.5,46.1c-13.5,12.4-27.9,20.6-43.3,24.7
		c-21.1,5.7-40.2,8.5-57.3,8.5H320.8V50.4z M417,120.9V291h23.6c20.1,0,34.4-2.2,42.9-6.7c8.5-4.5,15.1-12.2,20-23.4
		c4.8-11.1,7.2-29.1,7.2-54c0-33-5.4-55.6-16.1-67.7c-10.8-12.2-28.6-18.3-53.5-18.3H417z"/>
	<path class="st0" d="M620,50.4h257.8v66.5H716.4v49.5h149.7v63.5H716.4v61.4h166.1v70.5H620V50.4z"/>
	<path class="st0" d="M898.4,50.4h126.5l48.8,189.4l48.4-189.4h126.4v311.3h-78.8V124.3l-60.7,237.4h-71.3l-60.6-237.4v237.4h-78.8
		V50.4z"/>
	<path class="st0" d="M1259.9,206.3c0-50.8,14.2-90.4,42.5-118.7c28.3-28.3,67.7-42.5,118.3-42.5c51.8,0,91.7,13.9,119.8,41.7
		s42,66.8,42,116.9c0,36.4-6.1,66.2-18.4,89.5c-12.2,23.3-29.9,41.4-53.1,54.4s-52,19.4-86.5,19.4c-35.1,0-64.2-5.6-87.2-16.8
		c-23-11.2-41.7-28.9-56-53.1C1267,273,1259.9,242.7,1259.9,206.3z M1356.1,206.7c0,31.4,5.8,54,17.5,67.7
		c11.7,13.7,27.6,20.6,47.7,20.6c20.7,0,36.7-6.7,48-20.2c11.3-13.4,17-37.6,17-72.4c0-29.3-5.9-50.7-17.7-64.2
		c-11.8-13.5-27.9-20.3-48.1-20.3c-19.4,0-35,6.9-46.7,20.6C1362,152.3,1356.1,175,1356.1,206.7z"/>
	<path class="st0" d="M1576.6,258.8l91.5-5.7c2,14.9,6,26.2,12.1,34c9.9,12.6,24.1,18.9,42.5,18.9c13.7,0,24.3-3.2,31.7-9.7
		c7.4-6.4,11.1-13.9,11.1-22.4c0-8.1-3.5-15.3-10.6-21.7c-7.1-6.4-23.5-12.4-49.3-18.1c-42.2-9.5-72.3-22.1-90.3-37.8
		c-18.1-15.7-27.2-35.7-27.2-60.1c0-16,4.6-31.1,13.9-45.3c9.3-14.2,23.2-25.4,41.8-33.6c18.6-8.1,44.1-12.2,76.6-12.2
		c39.8,0,70.1,7.4,91,22.2c20.9,14.8,33.3,38.3,37.3,70.6l-90.7,5.3c-2.4-14-7.5-24.2-15.2-30.6c-7.7-6.4-18.4-9.6-32-9.6
		c-11.2,0-19.6,2.4-25.3,7.1c-5.7,4.7-8.5,10.5-8.5,17.3c0,5,2.3,9.4,7,13.4c4.5,4.1,15.3,7.9,32.3,11.5c42,9.1,72.2,18.2,90.4,27.5
		c18.2,9.3,31.4,20.8,39.7,34.5c8.3,13.7,12.4,29.1,12.4,46.1c0,20-5.5,38.4-16.6,55.2c-11,16.9-26.5,29.6-46.3,38.3
		c-19.8,8.7-44.8,13.1-75,13.1c-53,0-89.6-10.2-110-30.6S1579.3,290.2,1576.6,258.8z"/>
</g>
</svg>
