<?xml version="1.0" encoding="utf-8"?>
<!-- Generator: Adobe Illustrator 27.5.0, SVG Export Plug-In . SVG Version: 6.00 Build 0)  -->
<svg version="1.1" id="Layer_1" xmlns="http://www.w3.org/2000/svg" xmlns:xlink="http://www.w3.org/1999/xlink" x="0px" y="0px"
	 viewBox="0 0 500 500" style="enable-background:new 0 0 500 500;" xml:space="preserve">
<style type="text/css">
	.st0{fill:#FFFFFF;}
</style>
<rect width="500" height="500"/>
<g>
	<path class="st0" d="M83.5,188.2l-70.7-12.7c5.9-22.5,17.2-39.8,33.9-51.8c16.7-12,40.4-18,71-18c35.2,0,60.6,6.6,76.2,19.7
		c15.7,13.1,23.5,29.6,23.5,49.4c0,11.6-3.2,22.2-9.6,31.6c-6.4,9.4-16,17.7-28.8,24.8c10.4,2.6,18.4,5.6,23.9,9
		c8.9,5.5,15.9,12.8,20.9,21.8c5,9,7.4,19.8,7.4,32.2c0,15.7-4.1,30.7-12.3,45.1c-8.2,14.4-20,25.5-35.5,33.3
		c-15.4,7.8-35.7,11.7-60.8,11.7c-24.5,0-43.8-2.9-58-8.6c-14.1-5.8-25.8-14.2-34.9-25.3c-9.1-11.1-16.1-25-21-41.8l74.8-9.9
		c2.9,15.1,7.5,25.5,13.7,31.3c6.2,5.8,14.1,8.7,23.6,8.7c10,0,18.4-3.7,25.1-11c6.7-7.3,10-17.1,10-29.4c0-12.5-3.2-22.2-9.6-29
		c-6.4-6.9-15.2-10.3-26.2-10.3c-5.9,0-14,1.5-24.3,4.4l3.9-53.5c4.2,0.6,7.4,0.9,9.7,0.9c9.8,0,18-3.1,24.5-9.4
		c6.6-6.2,9.8-13.7,9.8-22.2c0-8.2-2.5-14.8-7.3-19.7c-4.9-4.9-11.6-7.3-20.2-7.3c-8.8,0-16,2.7-21.5,8
		C89.2,165.5,85.4,174.9,83.5,188.2z"/>
	<path class="st0" d="M244.1,110.3h123.6c24.4,0,44.1,3.3,59.1,9.9c15,6.6,27.4,16.1,37.2,28.5c9.8,12.4,16.9,26.8,21.3,43.2
		c4.4,16.4,6.6,33.8,6.6,52.2c0,28.8-3.3,51.1-9.8,67c-6.6,15.9-15.6,29.2-27.3,39.9c-11.6,10.7-24.1,17.9-37.5,21.4
		c-18.3,4.9-34.8,7.3-49.6,7.3H244.1V110.3z M327.4,171.3v147.2h20.4c17.4,0,29.8-1.9,37.1-5.8c7.3-3.9,13.1-10.6,17.3-20.2
		c4.2-9.6,6.2-25.2,6.2-46.8c0-28.5-4.7-48.1-14-58.6c-9.3-10.5-24.7-15.8-46.3-15.8H327.4z"/>
</g>
</svg>
